<?xml version="1.0" encoding="UTF-8"?>
<!DOCTYPE svg PUBLIC "-//W3C//DTD SVG 1.1//EN" "http://www.w3.org/Graphics/SVG/1.1/DTD/svg11.dtd">
<svg xmlns="http://www.w3.org/2000/svg" version="1.1" width="44px" height="64px" style="shape-rendering:geometricPrecision; text-rendering:geometricPrecision; image-rendering:optimizeQuality; fill-rule:evenodd; clip-rule:evenodd" xmlns:xlink="http://www.w3.org/1999/xlink">
<g><path style="opacity:0.004" fill="#de0000" d="M 31.5,0.5 C 31.5,0.166667 31.5,-0.166667 31.5,-0.5C 32.1667,-0.5 32.8333,-0.5 33.5,-0.5C 35.0311,0.924541 34.6977,1.59121 32.5,1.5C 32.5,0.833333 32.1667,0.5 31.5,0.5 Z"/></g>
<g><path style="opacity:0.861" fill="#4c0000" d="M 15.5,-0.5 C 19.8333,-0.5 24.1667,-0.5 28.5,-0.5C 29.209,0.403972 30.209,0.737305 31.5,0.5C 31.5,0.833333 31.5,1.16667 31.5,1.5C 14.877,0.613996 5.21032,8.44733 2.5,25C 2.52482,31.5423 4.85815,37.0423 9.5,41.5C 5.22687,40.2249 2.22687,37.5582 0.5,33.5C 0.67158,32.5084 0.338246,31.8417 -0.5,31.5C -0.5,26.5 -0.5,21.5 -0.5,16.5C 0.673734,15.4863 1.3404,14.153 1.5,12.5C 4.88504,6.78146 9.55171,2.44812 15.5,-0.5 Z"/></g>
<g><path style="opacity:0.995" fill="#af0200" d="M 31.5,1.5 C 31.8333,1.5 32.1667,1.5 32.5,1.5C 37.5823,4.24704 41.249,8.24704 43.5,13.5C 43.5,18.1667 43.5,22.8333 43.5,27.5C 42.596,28.209 42.2627,29.209 42.5,30.5C 41.6618,30.8417 41.3284,31.5084 41.5,32.5C 40.6618,32.8417 40.3284,33.5084 40.5,34.5C 39.8333,34.5 39.5,34.8333 39.5,35.5C 37.5,36.8333 35.8333,38.5 34.5,40.5C 33.8333,40.5 33.5,40.8333 33.5,41.5C 32.8333,41.5 32.5,41.8333 32.5,42.5C 31.8333,42.5 31.5,42.8333 31.5,43.5C 30.596,44.209 30.2627,45.209 30.5,46.5C 28.7329,48.7916 27.7329,51.4582 27.5,54.5C 26.596,55.209 26.2627,56.209 26.5,57.5C 25.1302,59.2504 24.1302,61.2504 23.5,63.5C 23.1667,63.5 22.8333,63.5 22.5,63.5C 20.7757,58.497 18.9424,53.497 17,48.5C 16.3444,46.0139 14.8444,44.3472 12.5,43.5C 11.2905,43.0679 10.2905,42.4013 9.5,41.5C 4.85815,37.0423 2.52482,31.5423 2.5,25C 5.21032,8.44733 14.877,0.613996 31.5,1.5 Z M 27.5,13.5 C 28.8333,17.8333 28.8333,22.1667 27.5,26.5C 26.5,28.1667 25.1667,29.5 23.5,30.5C 21.4352,30.5172 19.4352,30.8505 17.5,31.5C 16.5,30.8333 15.5,30.1667 14.5,29.5C 14.5,26.1667 14.5,22.8333 14.5,19.5C 15.9063,19.0269 16.573,18.0269 16.5,16.5C 19.6677,13.9439 23.3344,12.9439 27.5,13.5 Z M 23.5,31.5 C 21.5615,33.1628 19.2282,33.8294 16.5,33.5C 15.8333,33.5 15.5,33.1667 15.5,32.5C 16.1667,32.5 16.8333,32.5 17.5,32.5C 19.5,32.1667 21.5,31.8333 23.5,31.5 Z"/></g>
<g><path style="opacity:0.006" fill="#250700" d="M 1.5,12.5 C 0.833333,12.8333 0.166667,13.1667 -0.5,13.5C -0.5,12.8333 -0.5,12.1667 -0.5,11.5C 0.924541,9.96895 1.59121,10.3023 1.5,12.5 Z"/></g>
<g><path style="opacity:0.811" fill="#4c0000" d="M 27.5,11.5 C 34.0822,13.9651 36.2489,18.6318 34,25.5C 30.6564,34.3168 24.8231,36.9835 16.5,33.5C 19.2282,33.8294 21.5615,33.1628 23.5,31.5C 26.1667,30.8333 27.8333,29.1667 28.5,26.5C 29.3382,26.1583 29.6716,25.4916 29.5,24.5C 30.8333,21.5 30.8333,18.5 29.5,15.5C 29.6716,14.5084 29.3382,13.8417 28.5,13.5C 28.1667,12.8333 27.8333,12.1667 27.5,11.5 Z"/></g>
<g><path style="opacity:0.008" fill="#960001" d="M 15.5,16.5 C 15.8333,16.5 16.1667,16.5 16.5,16.5C 16.573,18.0269 15.9063,19.0269 14.5,19.5C 14.5,18.8333 14.5,18.1667 14.5,17.5C 15.1667,17.5 15.5,17.1667 15.5,16.5 Z"/></g>
<g><path style="opacity:0.016" fill="#460300" d="M 27.5,13.5 C 27.8333,13.5 28.1667,13.5 28.5,13.5C 28.3284,14.4916 28.6618,15.1583 29.5,15.5C 29.5,18.5 29.5,21.5 29.5,24.5C 28.6618,24.8417 28.3284,25.5084 28.5,26.5C 28.1667,26.5 27.8333,26.5 27.5,26.5C 28.8333,22.1667 28.8333,17.8333 27.5,13.5 Z"/></g>
<g><path style="opacity:0.016" fill="#3a0300" d="M 23.5,30.5 C 23.5,30.8333 23.5,31.1667 23.5,31.5C 21.5,31.8333 19.5,32.1667 17.5,32.5C 17.5,32.1667 17.5,31.8333 17.5,31.5C 19.4352,30.8505 21.4352,30.5172 23.5,30.5 Z"/></g>
<g><path style="opacity:0.016" fill="#c70000" d="M 14.5,29.5 C 15.5,30.1667 16.5,30.8333 17.5,31.5C 17.5,31.8333 17.5,32.1667 17.5,32.5C 16.8333,32.5 16.1667,32.5 15.5,32.5C 15.5,31.8333 15.1667,31.5 14.5,31.5C 14.5,30.8333 14.5,30.1667 14.5,29.5 Z"/></g>
<g><path style="opacity:0.008" fill="#940001" d="M 42.5,30.5 C 42.8333,30.5 43.1667,30.5 43.5,30.5C 43.5,31.1667 43.5,31.8333 43.5,32.5C 43.1667,32.5 42.8333,32.5 42.5,32.5C 42.5,31.8333 42.5,31.1667 42.5,30.5 Z"/></g>
<g><path style="opacity:0.012" fill="#b00000" d="M 41.5,32.5 C 41.8333,32.5 42.1667,32.5 42.5,32.5C 42.6716,33.4916 42.3382,34.1583 41.5,34.5C 41.5,33.8333 41.5,33.1667 41.5,32.5 Z"/></g>
<g><path style="opacity:0.024" fill="#3b0800" d="M -0.5,33.5 C -0.166667,33.5 0.166667,33.5 0.5,33.5C 0.67158,34.4916 0.338246,35.1583 -0.5,35.5C -0.5,34.8333 -0.5,34.1667 -0.5,33.5 Z"/></g>
<g><path style="opacity:0.024" fill="#a90000" d="M 40.5,34.5 C 40.8333,34.5 41.1667,34.5 41.5,34.5C 41.3147,35.1701 40.9813,35.1701 40.5,34.5 Z"/></g>
<g><path style="opacity:0.024" fill="#a90000" d="M 39.5,35.5 C 39.8333,35.5 40.1667,35.5 40.5,35.5C 40.3147,36.1701 39.9813,36.1701 39.5,35.5 Z"/></g>
<g><path style="opacity:0.004" fill="#c90e04" d="M 34.5,40.5 C 36.7929,41.3013 36.4596,41.968 33.5,42.5C 33.5,42.1667 33.5,41.8333 33.5,41.5C 34.1667,41.5 34.5,41.1667 34.5,40.5 Z"/></g>
<g><path style="opacity:0.027" fill="#ce0000" d="M 32.5,42.5 C 32.8333,42.5 33.1667,42.5 33.5,42.5C 33.3404,44.153 32.6737,45.4863 31.5,46.5C 31.5,45.5 31.5,44.5 31.5,43.5C 32.1667,43.5 32.5,43.1667 32.5,42.5 Z"/></g>
<g><path style="opacity:0.006" fill="#310b00" d="M 12.5,46.5 C 12.2074,50.2213 11.5407,50.0546 10.5,46C 10.6667,45.5 10.8333,45 11,44.5C 11.2784,45.4158 11.7784,46.0825 12.5,46.5 Z"/></g>
<g><path style="opacity:0.016" fill="#c30000" d="M 30.5,46.5 C 30.8333,46.5 31.1667,46.5 31.5,46.5C 31.1667,49.1667 30.8333,49.1667 30.5,46.5 Z"/></g>
<g><path style="opacity:0.012" fill="#9f0000" d="M 29.5,52.5 C 29.3505,51.448 29.5172,50.448 30,49.5C 30.7401,50.7494 30.5735,51.7494 29.5,52.5 Z"/></g>
<g><path style="opacity:0.761" fill="#4e0000" d="M 12.5,43.5 C 14.8444,44.3472 16.3444,46.0139 17,48.5C 18.9424,53.497 20.7757,58.497 22.5,63.5C 22.1667,63.5 21.8333,63.5 21.5,63.5C 21.1583,62.6618 20.4916,62.3284 19.5,62.5C 18.8698,60.2504 17.8698,58.2504 16.5,56.5C 15.7365,52.8632 14.4032,49.5299 12.5,46.5C 12.5,45.5 12.5,44.5 12.5,43.5 Z"/></g>
<g><path style="opacity:0.027" fill="#b50000" d="M 29.5,52.5 C 29.5979,54.5529 28.9313,56.2196 27.5,57.5C 27.5,56.5 27.5,55.5 27.5,54.5C 28.1667,53.8333 28.8333,53.1667 29.5,52.5 Z"/></g>
<g><path style="opacity:0.02" fill="#600300" d="M 16.5,56.5 C 16.2074,60.2213 15.5407,60.0546 14.5,56C 14.6667,55.5 14.8333,55 15,54.5C 15.2784,55.4158 15.7784,56.0825 16.5,56.5 Z"/></g>
<g><path style="opacity:0.016" fill="#b70000" d="M 26.5,57.5 C 26.8333,57.5 27.1667,57.5 27.5,57.5C 27.1667,60.1667 26.8333,60.1667 26.5,57.5 Z"/></g>
<g><path style="opacity:0.006" fill="#ee0000" d="M 26.5,63.5 C 26.1667,63.5 25.8333,63.5 25.5,63.5C 25.8333,59.5 26.1667,59.5 26.5,63.5 Z"/></g>
<g><path style="opacity:0.008" fill="#7f0000" d="M 19.5,62.5 C 19.5,62.8333 19.5,63.1667 19.5,63.5C 18.8299,63.0187 18.8299,62.6853 19.5,62.5 Z"/></g>
</svg>
